<svg width="125px" height="auto" viewBox="0 0 422 161" xmlns="http://www.w3.org/2000/svg" class="docs-h-full docs-w-auto docs-max-w-full docs-fill-current"><title>ember-logo</title><g fill-rule="evenodd"><path d="M421.536 116.413c-.71-7.079-7.08-4.446-7.08-4.446s-10.26 7.957-19.29 7.072c-9.02-.885-6.19-21.066-6.19-21.066s1.94-18.497-3.36-20.047c-5.31-1.55-11.86 4.821-11.86 4.821s-8.14 9.025-12.04 20.528l-1.06.354s1.24-20.174-.17-24.775c-1.07-2.301-10.8-2.124-12.39 1.946-1.59 4.07-9.38 32.385-9.91 44.242 0 0-15.22 12.918-28.49 15.042-13.28 2.123-16.46-6.194-16.46-6.194s36.1-10.087 34.86-38.933c-1.24-28.845-29.11-18.178-32.26-15.806-3.05 2.293-19.35 12.118-24.1 39.329-.16.927-.44 4.969-.44 4.969s-13.99 9.379-21.77 11.857c0 0 21.77-36.632-4.78-53.267-12.03-7.256-21.59 7.963-21.59 7.963s35.92-39.994 27.96-73.794c-3.79-16.097-11.83-17.824-19.22-15.22-11.22 4.425-15.46 10.972-15.46 10.972s-14.52 21.059-17.88 52.382c-3.36 31.323-8.32 69.194-8.32 69.194s-6.9 6.725-13.27 7.079c-6.37.354-3.54-18.936-3.54-18.936s4.96-29.376 4.6-34.331c-.35-4.955-.7-7.61-6.54-9.379-5.84-1.77-12.21 5.663-12.21 5.663s-16.82 25.483-18.23 29.376l-.89 1.593-.88-1.062s11.86-34.685.53-35.216c-11.33-.531-18.76 12.387-18.76 12.387s-12.92 21.59-13.45 24.068l-.88-1.062s5.31-25.129 4.24-31.323c-1.06-6.194-6.9-4.955-6.9-4.955s-7.43-.885-9.38 3.893c-1.94 4.778-9.02 36.455-9.91 46.542 0 0-18.58 13.273-30.79 13.45-12.21.177-10.97-7.744-10.97-7.744s44.77-15.326 32.56-45.587c-5.49-7.786-11.86-10.236-20.88-10.059-9.03.177-20.22 5.684-27.48 21.965-3.47 7.766-4.73 15.134-5.44 20.712 0 0-7.83 1.6-12.08-1.939s-6.43 0-6.43 0-7.3 9.294-.04 12.126c7.26 2.831 18.58 4.155 18.58 4.155h-.01c1.04 4.955 4.07 13.371 12.91 20.082 13.27 10.087 38.75-.927 38.75-.927l10.44-5.862s.35 9.578 7.96 10.979c7.61 1.395 10.8-.021 24.07-32.229 7.79-16.457 8.32-15.58 8.32-15.58l.88-.177s-6.02 31.5-3.71 39.995c2.3 8.494 12.38 7.609 12.38 7.609s5.49 1.062 9.91-14.511c4.43-15.573 12.92-32.739 12.92-32.739h1.06s-3.71 32.208 1.95 42.472c5.66 10.264 20.35 3.454 20.35 3.454s10.26-5.181 11.86-6.774c0 0 12.18 10.37 29.37 8.488 38.41-7.56 52.07-17.768 52.07-17.768s6.59 16.72 27.04 18.27c23.36 1.77 36.1-12.926 36.1-12.926s-.18 9.557 7.96 12.919 13.63-15.531 13.63-15.531l13.63-37.559h1.23s.71 24.422 14.16 28.315c13.45 3.893 30.97-9.118 30.97-9.118s4.25-2.343 3.54-9.421zm-380.65 3.497c.53-21.059 14.33-30.262 19.11-25.66 4.78 4.601 3.01 14.511-6.02 20.705-9.02 6.193-13.09 4.955-13.09 4.955zm179.62-81.582s12.56-32.738 15.57-16.811c3.01 15.926-26.37 63.353-26.37 63.353.36-10.618 10.8-46.542 10.8-46.542zm15.04 91.138c-8.32 21.767-28.49 12.918-28.49 12.918s-2.3-7.786 4.24-29.553c6.55-21.767 21.95-13.272 21.95-13.272s10.62 8.14 2.3 29.907zm55.74-9.556s-1.94-6.902 5.31-20.174c7.26-13.273 12.92-6.017 12.92-6.017s6.19 6.724-.88 16.811c-7.08 10.088-17.35 9.38-17.35 9.38z" fill-rule="nonzero"></path><text font-family="LucidaGrande, Lucida Grande" font-size="29.756"><tspan x="359.546" y="159.419">®</tspan></text></g></svg>